<svg xmlns="http://www.w3.org/2000/svg" width="35" height="24" viewBox="0 0 35 24"><g><g><path d="M33.838 2.534c0 .624-.52 1.13-1.163 1.13h-.323c.209-.342.32-.732.323-1.13h.582a.59.59 0 0 0 .41-.165l.171-.166zm-2.326 0c0 .624-.52 1.13-1.163 1.13h-2.326c0-.624.52-1.13 1.163-1.13h1.744a.59.59 0 0 0 .411-.165l.171-.166zm-9.84.536a6.523 6.523 0 0 1 2.598-.536h2.913c-.21.342-.32.732-.323 1.13v.565c0 .312.26.565.581.565h5.339l.955 4.641-1.54.3a1.197 1.197 0 0 1-.955-.226l-2.272-1.767a.596.596 0 0 0-.582-.082.568.568 0 0 0-.359.453l-1.163 9.038a.446.446 0 0 0-.004.07v5.65H25.6l-1.066-5.7v-2.774H23.37v2.26h-6.446a5.664 5.664 0 0 1-2.85-.767 6.851 6.851 0 0 0-3.449-.928H9.567a4.94 4.94 0 0 0 .429-1.993v-1.961H8.833v1.962c-.005 1.387-.755 2.672-1.978 3.389L3.3 18.432a.558.558 0 0 0-.264.622l.982 3.816H2.88l-1.524-5.426 1.545-1.126c.438-.321.696-.823.698-1.356V8.748c.002-2.183 1.823-3.952 4.07-3.954h8.406a7.704 7.704 0 0 0 3.07-.633l2.528-1.091zm12.224 1.38a2.24 2.24 0 0 0 1.105-1.916V.84a.566.566 0 0 0-.359-.522.594.594 0 0 0-.633.122l-.993.965h-.34V.84a.566.566 0 0 0-.36-.522.594.594 0 0 0-.634.122l-.992.965h-6.42a7.704 7.704 0 0 0-3.07.632L18.673 3.13a6.518 6.518 0 0 1-2.598.535H7.67c-1.986.003-3.8 1.097-4.682 2.825H1.854C.891 6.489.11 7.247.11 8.183v6.779h1.163V8.183c0-.312.26-.565.581-.565h.717a4.92 4.92 0 0 0-.135 1.13v6.214a.559.559 0 0 1-.233.452L.343 16.77a.556.556 0 0 0-.213.6l1.744 6.214a.58.58 0 0 0 .562.416h2.326c.18 0 .349-.08.459-.217a.552.552 0 0 0 .106-.485l-1.058-4.113 3.186-1.857a5.158 5.158 0 0 0 1.426-1.236h1.745c1.004 0 1.989.265 2.85.766a6.851 6.851 0 0 0 3.449.928h6.542l1.076 5.75c.05.269.291.464.572.464h2.326a.573.573 0 0 0 .582-.565v-6.178l1.032-8.002 1.461 1.135a2.374 2.374 0 0 0 1.909.452l2.11-.41a.566.566 0 0 0 .455-.667l-1.094-5.316z"/></g></g></svg>