<svg xmlns="http://www.w3.org/2000/svg" width="29" height="30" viewBox="0 0 29 30"><g><g><g><g><g><path d="M21.204 15.236c-.918-.305-2.654-.539-4.525-.191-2.318.431-4.193 1.646-5.42 3.512a.602.602 0 0 0 .445.93c.018.002 1.6.157 3.395.519l-.385 1.226a.602.602 0 1 0 1.148.361l.416-1.324c.26.064.508.13.741.198l.032.009-.41 1.263a.602.602 0 0 0 1.146.37l.415-1.28.43.137c.906.291 1.56.502 1.997.535a.602.602 0 0 0 .091-1.2c-.294-.022-.987-.245-1.72-.481-.322-.104-.655-.21-1.01-.32a23.633 23.633 0 0 0-1.987-.533 37.514 37.514 0 0 0-3.124-.551c2.645-2.976 6.873-2.394 7.945-2.038.851.284 2.264.97 2.156 2.375a.602.602 0 0 0 1.2.092c.125-1.623-.96-2.938-2.976-3.609z"/></g></g></g><g><g><g><path d="M26.46 15.695a7.142 7.142 0 0 0-.302-.314c-1.017-.994-2.388-1.763-3.982-2.236-.196-1.238-.811-5.095-1.107-6.522-.483-2.333-.372-3.93.33-4.746.468-.543 1.225-.78 2.313-.72C25.58 1.26 26.43 3.6 26.772 5c-.913-.2-1.514.122-1.833.388a.432.432 0 0 0-.008.006l-.002.001-.006.006a.584.584 0 0 0-.036.034l-.016.018-.022.025c-.008.009-.014.018-.02.027l-.014.02a.571.571 0 0 0-.02.031l-.01.019-.015.032-.01.02-.01.031-.01.026-.006.026-.007.031-.004.023-.005.036v.02a.559.559 0 0 0-.002.038v.023l.003.034c0 .011.003.022.004.032l.004.025a.61.61 0 0 0 .012.047l.002.01.001.002.001.005c.245.81.524 1.783.55 1.944.054.35-.105.685-.371.78a.412.412 0 0 1-.08.02c-.304.047-.61-.242-.67-.628-.023-.167-.042-1.216-.046-2.093a.602.602 0 0 0-.602-.599h-.003a.602.602 0 0 0-.599.605c.002.454.014 1.957.06 2.266.145.951.908 1.644 1.767 1.658.37.932 1.24 3.268 1.71 5.706zm.27 3.754c-.058 1.386-.911 2.698-2.402 3.695-1.172.783-2.63 1.302-4.213 1.512h-.008c-.523.07-1.06.105-1.605.105-1.95 0-3.843-.466-5.332-1.313-.823-.468-1.49-1.028-1.985-1.663-.607-.778-.914-1.616-.914-2.49 0-1.42.828-2.769 2.332-3.8l.005-.003c1.567-1.074 3.66-1.664 5.894-1.664a11.807 11.807 0 0 1 2.988.375c3.137.82 5.244 2.866 5.244 5.092 0 .054-.001.103-.004.154zm-8.53 8.908V25.96a13.55 13.55 0 0 0 1.372-.038v2.435zm-8.13-2.452a4.66 4.66 0 0 1-3.03.281c-.353-.087-.762-.267-.987-.529 1.205-.54 3.076-1.57 4.571-2.678.409.439.888.84 1.434 1.199a4.659 4.659 0 0 1-1.989 1.727zm-5.02-1.133a2.583 2.583 0 0 1-3.428-1.613 2.564 2.564 0 0 1 1.46-3.157.602.602 0 0 0 .033-1.096 2.584 2.584 0 0 1-1.304-3.134A2.576 2.576 0 0 1 4.62 14.04a.602.602 0 0 0 .582-.937 2.59 2.59 0 0 1 .628-3.557c.56-.4 1.244-.558 1.923-.444.68.113 1.274.485 1.675 1.046.473.662 1.468 2.675 2.127 4.62C9.947 16 9.067 17.593 9.067 19.296c0 .945.282 1.88.82 2.732C8.23 23.25 6.045 24.4 5.049 24.772zM26.482 7.798c-.034-.225-.274-1.058-.447-1.64.32-.068.734.041 1.24.327a.602.602 0 0 0 .894-.595c-.028-.234-.727-5.735-4.392-5.935-1.466-.08-2.573.303-3.291 1.137-.972 1.13-1.167 3.019-.596 5.775.255 1.23.771 4.424 1.018 5.975a13.242 13.242 0 0 0-2.407-.218c-2.175 0-4.243.515-5.91 1.46-.667-1.88-1.631-3.86-2.185-4.636a3.76 3.76 0 0 0-2.455-1.534 3.759 3.759 0 0 0-2.821.652 3.76 3.76 0 0 0-1.528 2.423c-.111.63-.062 1.265.136 1.855a3.782 3.782 0 0 0-2.006 6.568 3.781 3.781 0 0 0-1.259 4.111 3.791 3.791 0 0 0 4.415 2.552c.317.6.977 1.062 1.862 1.28a5.864 5.864 0 0 0 3.817-.354 5.869 5.869 0 0 0 2.538-2.228c1.16.569 2.494.947 3.89 1.106v2.478h-1.303a.602.602 0 0 0 0 1.204h6.31a.602.602 0 0 0 0-1.204h-1.227v-2.585c1.572-.273 3.024-.828 4.22-1.627 1.794-1.2 2.832-2.82 2.933-4.567a.59.59 0 0 0 .006-.05c.33-3.607-1.446-8.43-2.057-9.96.467-.415.71-1.08.605-1.77z"/></g></g></g><g><g><g><path d="M23.589 2.887c-.775 0-.776 1.204 0 1.204"/></g></g></g><g><g><g><path d="M7.674 10.99c-.774 0-.776 1.204 0 1.204"/></g></g></g><g><g><g><path d="M3.902 15.925c-.774 0-.776 1.204 0 1.204"/></g></g></g><g><g><g><path d="M3.38 22.065c-.774 0-.775 1.204 0 1.204"/></g></g></g><g><g><g><path d="M22.682 19.858c-.775 0-.776 1.204 0 1.204"/></g></g></g></g></g></svg>